<svg width="25" height="25" viewBox="0 0 25 25" fill="none" xmlns="http://www.w3.org/2000/svg">
<path d="M2.64658 21.5034H4.49918L15.9125 10.0901L14.0599 8.23747L2.64658 19.6508V21.5034ZM21.5696 8.1713L15.9456 2.61349L17.7982 0.76089C18.3055 0.25363 18.9287 0 19.668 0C20.4064 0 21.0292 0.25363 21.5365 0.76089L23.3891 2.61349C23.8964 3.12075 24.161 3.73299 24.1831 4.45022C24.2051 5.16656 23.9625 5.77836 23.4553 6.28562L21.5696 8.1713ZM1.32329 24.15C0.948356 24.15 0.634296 24.023 0.381107 23.7689C0.127036 23.5157 0 23.2016 0 22.8267V19.0884C0 18.912 0.0330823 18.7413 0.0992466 18.5763C0.165411 18.4105 0.264657 18.2614 0.396986 18.129L14.0269 4.49918L19.6508 10.1231L6.02096 23.753C5.88863 23.8853 5.73998 23.9846 5.57501 24.0508C5.40916 24.1169 5.23801 24.15 5.06158 24.15H1.32329ZM14.9862 9.16377L14.0599 8.23747L15.9125 10.0901L14.9862 9.16377Z" fill="#404040"/>
<path d="M0 0.497042V16.073C0 16.5184 0.538571 16.736 0.853553 16.4211L3.8843 13.3903C3.97807 13.2965 4.03074 13.1694 4.03074 13.0368V4.53074C4.03074 4.2546 4.2546 4.03074 4.53074 4.03074H11.5164C14.3955 4.03074 14.3955 0 11.5164 0H0.499999C0.223857 0 0 0.2209 0 0.497042Z" fill="#FF7411"/>
</svg>
