<svg width="26" height="25" viewBox="0 0 26 25" fill="none" xmlns="http://www.w3.org/2000/svg">
<path d="M8.53174 23.4982L0.641484 15.4808C0.427656 15.2635 0.267285 15.0245 0.160371 14.7638C0.053457 14.503 0 14.2314 0 13.949C0 13.6665 0.053457 13.3949 0.160371 13.1342C0.267285 12.8735 0.427656 12.6345 0.641484 12.4172L8.01855 4.95385L5.61299 2.50951C5.33501 2.22706 5.19068 1.89028 5.17999 1.49919C5.16929 1.1081 5.30294 0.760459 5.58091 0.456275C5.85889 0.152092 6.20102 0 6.60729 0C7.01356 0 7.36638 0.152092 7.66574 0.456275L19.437 12.4172C19.6508 12.6345 19.8058 12.8735 19.9021 13.1342C19.9983 13.3949 20.0464 13.6665 20.0464 13.949C20.0464 14.2314 19.9983 14.503 19.9021 14.7638C19.8058 15.0245 19.6508 15.2635 19.437 15.4808L11.5467 23.4982C11.3329 23.7155 11.0977 23.8784 10.8411 23.987C10.5845 24.0957 10.3172 24.15 10.0392 24.15C9.76125 24.15 9.49397 24.0957 9.23737 23.987C8.98078 23.8784 8.74557 23.7155 8.53174 23.4982ZM10.0392 7.00709L3.17535 13.9816L10 21L16.9031 13.9816L10.0392 7.00709ZM22.8368 24.15C22.0671 24.15 21.4149 23.873 20.8803 23.3189C20.3457 22.7649 20.0785 22.0859 20.0785 21.282C20.0785 20.6953 20.2228 20.1413 20.5115 19.6198C20.8001 19.0984 21.1262 18.5878 21.4897 18.0881L22.0991 17.3059C22.2916 17.0669 22.5428 16.9419 22.8529 16.9311C23.1629 16.9202 23.4142 17.0343 23.6066 17.2733L24.2481 18.0881C24.5902 18.5878 24.911 19.0984 25.2103 19.6198C25.5097 20.1413 25.6594 20.6953 25.6594 21.282C25.6594 22.0859 25.3814 22.7649 24.8254 23.3189C24.2695 23.873 23.6066 24.15 22.8368 24.15Z" fill="#404040"/>
</svg>
