<svg width="23" height="25" viewBox="0 0 23 25" fill="none" xmlns="http://www.w3.org/2000/svg">
<path d="M20.7 19.55H2.3C1.035 19.55 0 20.585 0 21.85C0 23.115 1.035 24.15 2.3 24.15H20.7C21.965 24.15 23 23.115 23 21.85C23 20.585 21.965 19.55 20.7 19.55Z" fill="black"/>
<path d="M5.87637 16.1C6.42837 16.1 6.92287 15.755 7.09537 15.2375L8.25687 11.983H14.7544L15.8929 15.226C16.0769 15.755 16.5714 16.1 17.1234 16.1C18.0319 16.1 18.6529 15.1915 18.3309 14.352L13.4434 1.3455C13.1444 0.5405 12.3624 0 11.4999 0C10.6374 0 9.85537 0.5405 9.55637 1.3455L4.66887 14.352C4.34687 15.1915 4.97937 16.1 5.87637 16.1ZM11.4309 2.99H11.5689L13.9034 9.6485H9.09637L11.4309 2.99Z" fill="#404040"/>
</svg>
