<?xml version="1.0" encoding="UTF-8" standalone="no"?>
<!-- Created with Inkscape (http://www.inkscape.org/) -->

<svg
   width="155.38544mm"
   height="58.054989mm"
   viewBox="0 0 155.38544 58.054989"
   version="1.1"
   id="svg5"
   xml:space="preserve"
   inkscape:version="1.2.1 (9c6d41e410, 2022-07-14)"
   sodipodi:docname="viala.svg"
   xmlns:inkscape="http://www.inkscape.org/namespaces/inkscape"
   xmlns:sodipodi="http://sodipodi.sourceforge.net/DTD/sodipodi-0.dtd"
   xmlns="http://www.w3.org/2000/svg"
   xmlns:svg="http://www.w3.org/2000/svg"><sodipodi:namedview
     id="namedview7"
     pagecolor="#505050"
     bordercolor="#eeeeee"
     borderopacity="1"
     inkscape:showpageshadow="0"
     inkscape:pageopacity="0"
     inkscape:pagecheckerboard="0"
     inkscape:deskcolor="#505050"
     inkscape:document-units="mm"
     showgrid="false"
     inkscape:zoom="1.0544998"
     inkscape:cx="296.8232"
     inkscape:cy="235.1826"
     inkscape:window-width="1080"
     inkscape:window-height="1857"
     inkscape:window-x="1912"
     inkscape:window-y="-8"
     inkscape:window-maximized="1"
     inkscape:current-layer="layer1" /><defs
     id="defs2" /><g
     inkscape:label="Layer 1"
     inkscape:groupmode="layer"
     id="layer1"
     transform="translate(-28.60361,-26.655595)"><text
       xml:space="preserve"
       style="font-style:normal;font-variant:normal;font-weight:bold;font-stretch:normal;font-size:12.6641px;line-height:0.95;font-family:'Century Gothic';-inkscape-font-specification:'Century Gothic Bold';fill:#ffffff;fill-opacity:1;stroke-width:0.197877"
       x="72.390884"
       y="55.694435"
       id="text236"><tspan
         sodipodi:role="line"
         id="tspan234"
         style="font-style:normal;font-variant:normal;font-weight:bold;font-stretch:normal;font-size:12.6641px;font-family:'Century Gothic';-inkscape-font-specification:'Century Gothic Bold';fill:#ffffff;fill-opacity:1;stroke-width:0.197877"
         x="72.390884"
         y="55.694435">Alexandre Viala's</tspan><tspan
         sodipodi:role="line"
         style="font-style:normal;font-variant:normal;font-weight:normal;font-stretch:normal;font-size:12.6641px;font-family:'Century Gothic';-inkscape-font-specification:'Century Gothic';fill:#ffffff;fill-opacity:1;stroke-width:0.197877"
         x="72.390884"
         y="67.725327"
         id="tspan288">Calendar Maker</tspan></text><g
       id="g5569"
       transform="matrix(0.11338865,0,0,0.11338865,26.577695,26.655594)"
       style="fill:#ffffff;fill-opacity:0.25;stroke:none">
	<path
   class="st0"
   d="m 118.612,89.298 c 9.482,0 17.176,-7.686 17.176,-17.168 V 17.17 C 135.788,7.687 128.094,0 118.612,0 109.13,0 101.435,7.687 101.435,17.169 v 54.96 c 0,9.482 7.695,17.169 17.177,17.169 z"
   id="path5557"
   style="fill:#ffffff;fill-opacity:0.25;stroke:none" />
	<path
   class="st0"
   d="m 255.992,89.298 c 9.482,0 17.177,-7.686 17.177,-17.168 V 17.17 C 273.169,7.687 265.474,0 255.992,0 246.509,0 238.816,7.687 238.816,17.169 v 54.96 c 0,9.482 7.694,17.169 17.176,17.169 z"
   id="path5559"
   style="fill:#ffffff;fill-opacity:0.25;stroke:none" />
	<path
   class="st0"
   d="m 393.372,89.298 c 9.483,0 17.176,-7.686 17.176,-17.168 V 17.17 C 410.549,7.687 402.855,0 393.372,0 383.889,0 376.196,7.687 376.196,17.169 v 54.96 c 0,9.482 7.694,17.169 17.176,17.169 z"
   id="path5561"
   style="fill:#ffffff;fill-opacity:0.25;stroke:none" />
	
	
	<path
   class="st0"
   d="m 427.001,44.899 h -2.714 v 27.23 c 0,17.038 -13.861,30.906 -30.914,30.906 -17.038,0 -30.914,-13.869 -30.914,-30.906 v -27.23 h -75.551 v 27.23 c 0,17.038 -13.877,30.906 -30.914,30.906 -17.037,0 -30.914,-13.869 -30.914,-30.906 v -27.23 h -75.552 v 27.23 c 0,17.038 -13.876,30.906 -30.914,30.906 -17.038,0 -30.916,-13.868 -30.916,-30.906 V 44.899 H 85 c -37.082,0 -67.133,30.059 -67.133,67.133 V 444.867 C 17.867,481.941 47.918,512 85,512 h 342.002 c 37.066,0 67.133,-30.058 67.133,-67.133 V 112.032 C 494.134,74.958 464.067,44.899 427.001,44.899 Z m 23.853,394.873 c 0,15.973 -12.99,28.964 -28.956,28.964 H 90.103 c -15.973,0 -28.971,-12.99 -28.971,-28.964 V 143.116 h 389.722 z"
   id="path5567"
   style="fill:#ffffff;fill-opacity:0.25;stroke:none" />
<text
   xml:space="preserve"
   style="font-size:256px;line-height:1.25;font-family:'Century Gothic';-inkscape-font-specification:'Century Gothic';fill:#ffffff;fill-opacity:0.25;stroke:none;stroke-width:0.64"
   x="127.91351"
   y="386.77948"
   id="text5949"><tspan
     sodipodi:role="line"
     id="tspan5947"
     style="font-style:normal;font-variant:normal;font-weight:bold;font-stretch:normal;font-size:256px;font-family:'Century Gothic';-inkscape-font-specification:'Century Gothic Bold';fill:#ffffff;fill-opacity:0.25;stroke:none;stroke-width:0.64"
     x="127.91351"
     y="386.77948">21</tspan></text></g><text
       xml:space="preserve"
       style="font-style:italic;font-variant:normal;font-weight:normal;font-stretch:normal;font-size:4.58611px;line-height:1.25;font-family:'Century Gothic';-inkscape-font-specification:'Century Gothic Italic';fill:#ffffff;fill-opacity:1;stroke-width:0.264583"
       x="73.718628"
       y="74.776787"
       id="text5953"><tspan
         sodipodi:role="line"
         id="tspan5951"
         style="font-style:italic;font-variant:normal;font-weight:normal;font-stretch:normal;font-size:4.58611px;font-family:'Century Gothic';-inkscape-font-specification:'Century Gothic Italic';fill:#ffffff;fill-opacity:1;stroke-width:0.264583"
         x="73.718628"
         y="74.776787"><tspan
   id="tspan6681"
   style="font-size:4.58611px">Simple. Beautiful. Perhaps slightly overengineered</tspan>.</tspan></text></g><style
     type="text/css"
     id="style5555">
	.st0{fill:#000000;}
</style></svg>
